<svg width="126" height="17" viewBox="0 0 126 17" fill="none" xmlns="http://www.w3.org/2000/svg">
<g clip-path="url(#clip0_17_235)">
<path d="M125.333 0.420488H114.263C111.375 0.331266 108.518 1.04999 105.986 2.50225C103.774 3.81674 102.046 5.86387 101.073 8.31986C100.467 9.67056 100.277 11.185 100.532 12.6532C100.675 13.3109 100.969 13.9224 101.388 14.4351C101.808 14.9479 102.34 15.3464 102.939 15.5966C104.143 16.1312 106.118 16.4079 108.905 16.4079H118.826L119.819 13.8922H114.227C111.534 13.8922 109.74 13.5316 108.845 12.8104C107.87 12.0243 107.978 10.2067 108.737 8.28212C110.073 4.95508 112.86 2.87961 116.713 2.87961H121.047L120.054 5.39533H123.341L125.333 0.420488ZM86.6859 10.0306L93.3619 3.2381L94.7525 10.0306H86.6859ZM29.8825 10.0306L36.4141 3.56514L37.588 10.062L29.8825 10.0306ZM92.8141 0.420488H88.7387L73.087 15.7224L79.2092 0.451935H72.5031L64.4124 7.08087L60.2467 10.6658H60.0541L62.0045 5.45193L59.5965 0.451935H52.8663L46.7442 15.7727L43.2105 0.451935H35.8241L19.5103 16.4205H23.5918L27.7575 12.2444H38.0334L38.8521 16.4205H49.7782L53.7212 6.54627C53.9491 5.9912 54.15 5.42444 54.3232 4.84816C54.3544 5.41604 54.4872 5.97279 54.7144 6.48967L58.1879 14.7224H58.7899L68.7226 6.54627C69.3035 6.00518 69.8542 5.42981 70.3721 4.823C69.9868 5.56514 69.7219 6.13118 69.5654 6.52112L65.6164 16.4205H80.4313L84.5488 12.2255H95.2281L96.0829 16.4205H99.8332L96.1792 0.420488H92.8141ZM24.248 8.34502C25.2473 5.82929 25.163 3.89009 23.9951 2.52741C22.8273 1.16472 20.62 0.472899 17.3733 0.451935H6.41114L5.41787 2.93621H12.9728C16.8255 2.93621 17.9452 4.9425 16.6148 8.26326C15.8443 10.1878 15.164 11.9551 13.5627 12.7412C12.0939 13.4645 10.5528 13.6721 7.87999 13.6721H4.38847L6.99507 7.21294H3.70221L0 16.4205H9.93878C12.1719 16.4932 14.4031 16.222 16.5606 15.6155C18.3407 15.0154 19.9711 14.0101 21.3344 12.6721C22.5893 11.4614 23.5843 9.98668 24.254 8.34502" fill="black"/>
</g>
<defs>
<clipPath id="clip0_17_235">
<rect width="125.333" height="16" fill="white" transform="translate(0 0.42041)"/>
</clipPath>
</defs>
</svg>
