<svg width="84" height="16" viewBox="0 0 84 16" fill="none" xmlns="http://www.w3.org/2000/svg">
<path d="M12.1579 14.3752L11.9095 15.9603H0.0258789C0.517578 14.8637 0.486523 14.2457 0.486523 13.4531V2.55718C0.486523 1.78958 0.517578 1.11668 0.0258789 0.0500143H3.58681H11.6196L11.6403 1.66497C11.4229 1.58023 11.247 1.50547 11.0865 1.43568C10.6569 1.28117 10.1135 1.13662 9.54931 1.1416C8.64872 1.1416 4.87041 1.1416 3.19345 1.1416V7.37213H10.6517L10.2843 8.5983H3.19345V14.8338C4.56503 14.8338 8.94892 14.8338 9.91679 14.8338C11.0503 14.8538 12.1786 14.2357 12.1786 14.2357L12.1475 14.3703C12.1475 14.3752 12.1527 14.3752 12.1579 14.3752ZM30.0454 15.9603C30.2058 15.1777 30.2058 14.0712 30.0764 13.169L29.0206 5.67244L23.2548 15.9553H22.1575L16.2985 5.20889L15.1598 13.3335C15.0356 14.2706 14.9994 15.4569 15.1029 15.9603H13.043C13.4415 15.1478 13.5398 14.7939 13.7262 13.4581L15.5894 0.0500143H16.5366L23.3738 12.5609L30.2058 0.0500143H30.9201L32.8455 13.4282C33.037 14.759 33.1819 15.1428 33.5649 15.9603H30.0454ZM47.3998 15.9603L44.6566 10.1335H39.1392L36.4323 15.9603H36.1994H34.2895H34.2792C34.9624 15.1428 35.1953 14.764 35.6766 13.7472L42.0739 0.0500143H42.7933L49.0871 13.3634C49.7599 14.6643 50.0756 15.0681 51.0383 15.9603H47.3998ZM64.661 15.9603L61.9178 10.1335H56.4004L53.6935 15.9603H53.4658H51.5507H51.5404C52.2236 15.1428 52.4565 14.764 52.9378 13.7472L59.3351 0.0500143H60.0545L66.3535 13.3634C67.0263 14.6643 67.342 15.0681 68.3047 15.9603H64.661ZM80.3022 15.9703C78.6511 14.5198 76.5135 12.5958 73.8376 9.54534C73.0716 8.68304 72.5333 8.57338 72.1866 8.55344V13.4531C72.1866 14.2407 72.1866 14.8637 72.6524 15.9603H69.019C69.5107 14.8637 69.4796 14.2457 69.4796 13.4531V2.54721C69.4796 1.77961 69.5107 1.10671 69.019 0.0400455H72.5799C75.0125 0.0400455 80.7628 -0.1693 80.7628 4.4064C80.7628 6.82385 78.7701 8.12478 76.4307 8.45375L75.7371 8.51855C75.7371 8.51855 83.3248 15.6612 83.6509 15.9703H80.3022ZM76.0011 7.5416L75.9959 7.54659C77.528 6.98833 78.0455 5.58771 77.9938 4.40142C77.9368 3.25998 77.4037 0.77774 72.1917 0.977117V7.76092C72.1917 7.76092 75.1109 7.91543 75.9286 7.57151C75.9752 7.55157 76.0011 7.5416 76.0011 7.5416ZM56.9284 9.02198H61.3847L59.1384 4.27182L56.9284 9.02198ZM39.6723 9.02198H44.1287L41.8824 4.27182L39.6723 9.02198Z" fill="#3C3D3F"/>
</svg>
