<svg width="64" height="17" viewBox="0 0 64 17" fill="none" xmlns="http://www.w3.org/2000/svg">
<path d="M12.4713 4.43771H10.9889V11.7017H12.4713V4.43771ZM8.79758 4.43771H7.31521V11.7017H8.79758V4.43771ZM5.12387 4.43771H3.64149V11.7017H5.12387C5.12387 11.6697 5.12387 4.43771 5.12387 4.43771ZM2.6425 1.52571H13.4703V0.0537109H2.6425V1.52571ZM1.48238 13.4297V2.67771H0V13.4297H1.48238ZM14.6304 2.67771V13.4297H16.1128V2.67771H14.6304ZM13.4703 14.5817H2.6425V16.0537H13.4703V14.5817ZM25.7482 11.6697H27.1662V4.43771H25.3615L23.2991 9.90971L21.2689 4.43771H19.432V11.7017H20.8177V6.77371L22.6868 11.7017H23.8792L25.7482 6.77371V11.6697ZM28.5841 11.6697H33.9658V10.3897H30.0987V8.59771H33.6435V7.28571H30.0987V5.68571H33.8691V4.40571H28.5841V11.6697ZM39.7986 11.6697H41.4743L39.8953 8.59771C40.282 8.43771 40.572 8.14971 40.7976 7.79771C40.9909 7.44571 41.0876 7.02971 41.0876 6.61371C41.0876 6.32571 41.0554 6.03771 40.9587 5.78171C40.862 5.52571 40.7009 5.26971 40.4753 5.07771C40.2175 4.85371 39.8953 4.69371 39.573 4.59771C39.1218 4.46971 38.6385 4.40571 38.1551 4.40571H35.3192V11.6697H36.8338V8.94971H38.4129L39.7986 11.6697ZM36.8338 7.70171V5.68571H38.1229C38.3484 5.68571 38.574 5.71771 38.7996 5.74971C38.9607 5.78171 39.0896 5.84571 39.2185 5.94171C39.3152 6.03771 39.4119 6.13371 39.4441 6.26171C39.4763 6.38971 39.5086 6.51771 39.5086 6.64571C39.5086 6.80571 39.4763 6.93371 39.4441 7.09371C39.4119 7.22171 39.3152 7.31771 39.2185 7.41371C39.0896 7.50971 38.9607 7.57371 38.7996 7.63771C38.6062 7.70171 38.3807 7.70171 38.1551 7.70171H36.8338ZM47.7583 11.6697H49.4018L46.5015 4.40571H44.9547L42.0544 11.6697H43.6334L44.2457 10.0057H47.146L47.7583 11.6697ZM45.6636 6.06971L46.6626 8.75771H44.6646L45.6636 6.06971ZM55.6213 11.6697H57.2648L54.3645 4.40571H52.8177L49.9174 11.6697H51.4965L52.1088 10.0057H55.0091L55.6213 11.6697ZM53.5589 6.06971L54.5579 8.75771H52.5599L53.5589 6.06971ZM63.8711 5.97371C63.8066 5.74971 63.71 5.55771 63.5811 5.36571C63.4199 5.14171 63.2588 4.94971 63.0332 4.82171C62.7754 4.62971 62.4532 4.50171 62.1309 4.40571C61.293 4.18171 60.4552 4.18171 59.6173 4.40571C59.2628 4.50171 58.9406 4.62971 58.6828 4.85371C58.425 5.04571 58.2316 5.26971 58.0705 5.55771C57.9094 5.84571 57.8449 6.16571 57.8449 6.48571C57.8127 7.02971 58.0383 7.57371 58.4572 7.92571C59.005 8.30971 59.6495 8.53371 60.2941 8.59771L61.3253 8.78971C61.6475 8.82171 61.9376 8.94971 62.1631 9.14171C62.3243 9.26971 62.3887 9.49371 62.3887 9.68571C62.3887 9.94171 62.2598 10.1977 62.0665 10.3577C61.7442 10.5497 61.3575 10.6457 60.9708 10.6137C60.5519 10.6137 60.1329 10.5177 59.7784 10.3577C59.3595 10.1657 59.005 9.84571 58.7472 9.46171L57.6838 10.4537C58.0383 10.9017 58.4894 11.2857 59.005 11.5097C59.6173 11.7657 60.2618 11.8937 60.9386 11.8617C61.3897 11.8617 61.8409 11.7977 62.292 11.6697C62.6465 11.5737 62.9688 11.3817 63.2588 11.1577C63.5166 10.9657 63.71 10.7097 63.8389 10.4217C63.9678 10.1337 64.0322 9.81371 64.0322 9.49371C64.0322 8.98171 63.8389 8.50171 63.4844 8.14971C62.9688 7.73371 62.3565 7.47771 61.6798 7.38171L60.5519 7.18971C60.2296 7.15771 59.9396 7.06171 59.6818 6.86971C59.5206 6.70971 59.424 6.48571 59.4562 6.26171C59.4562 6.03771 59.5851 5.81371 59.7784 5.68571C59.9073 5.58971 60.0685 5.55771 60.2296 5.52571C60.4552 5.49371 60.6808 5.46171 60.9063 5.46171C61.293 5.42971 61.6475 5.52571 62.002 5.71771C62.292 5.90971 62.5176 6.19771 62.6465 6.51771L63.8711 5.97371Z" fill="black"/>
</svg>
